<svg xmlns="http://www.w3.org/2000/svg" viewBox="-4 -15.5 160 160">
  <style>
    path { fill: #09090b; }
    @media (prefers-color-scheme: dark) { path { fill: #fafafa; } }
  </style>
  <path d="M143.006 36.4777C154.954 40.0113 155.004 58.6612 143.118 78.1342C131.233 97.6072 111.912 110.529 99.9634 106.996C94.993 105.526 92.0827 101.439 91.234 95.7651C91.0625 94.6182 88.4742 94.0372 87.9435 95.0678C82.7669 105.12 76.2489 111.818 69.6573 112.737C65.0007 113.385 60.9395 111.061 57.7662 106.516C57.1902 105.691 55.7155 106.032 55.6264 107.035C54.6757 117.732 51.7165 125.414 46.7893 128.038C35.3411 134.132 17.6406 110.627 7.25656 75.5362C-3.12728 40.4446 -2.26385 7.05538 9.18429 0.961201C20.6325 -5.13145 38.3322 18.3751 48.716 53.4656C49.1041 54.7773 49.4759 56.0867 49.8319 57.3923C50.1199 58.4484 51.7817 58.3496 51.9578 57.2691C56.0009 32.4613 67.5737 12.2592 79.3857 10.6123C92.3967 8.80056 100.767 30.1899 98.0822 58.3893C97.8876 60.4328 97.6391 62.4557 97.3414 64.4511C97.1807 65.5282 99.2845 66.2686 99.8516 65.3395C111.737 45.8665 131.058 32.9445 143.006 36.4777Z"/>
</svg>
