<svg width="354" height="101" viewBox="0 0 354 101" fill="none" xmlns="http://www.w3.org/2000/svg">
<path d="M20.5472 34.8111L20.68 34.6781L14.1705 52.1401H8.7237L0 29.9803H4.95967L12.3549 49.6138H10.8493L18.0231 29.9803H23.2484L30.4221 49.6138H29.0493L36.4003 29.9803H41.2271L32.5035 52.1401H27.0123L20.5472 34.8111Z" fill="white"/>
<path d="M63.8112 38.4008H46.0982L46.1866 41.0157C46.1866 36.1406 49.4636 33.2156 54.9548 33.2156C60.4457 33.2156 63.7227 36.0962 63.7227 41.0157L63.8112 38.4008ZM41.4484 41.0601C41.4484 48.0181 47.1165 53.0262 54.9989 53.0262C61.2872 53.0262 66.2911 49.7909 67.9296 44.6499H63.0585C61.597 47.3533 58.6744 48.9046 54.9989 48.9046C50.2607 48.9046 46.9837 46.6 46.2754 42.567H68.461V41.0601C68.461 34.1463 62.7485 29.0938 54.9104 29.0938C47.0724 29.0938 41.4484 34.1019 41.4484 41.0601Z" fill="white"/>
<path d="M104.684 43.1874V42.7441H92.6836C89.8936 42.7441 88.2554 43.7192 88.2554 45.359C88.2554 47.6636 90.4694 48.9046 94.7647 48.9046C98.1745 48.9046 101.319 47.9739 103.001 46.733C104.153 45.8464 104.684 44.7387 104.684 43.1874ZM83.5171 45.7135C83.5171 41.5475 87.0595 38.8441 92.462 38.8441H105.127L104.596 39.5532C103.976 35.3429 101.319 33.2156 96.6689 33.2156C92.7279 33.2156 89.938 34.7225 88.6095 37.5145H83.7385C85.0225 32.4621 90.1152 29.0938 96.6689 29.0938C104.241 29.0938 109.068 33.5701 109.068 40.6169V52.1399H104.861V48.4169L104.994 48.5057C103.002 51.3422 99.0603 53.0262 94.012 53.0262C87.5468 53.0262 83.5171 50.2341 83.5171 45.7135Z" fill="white"/>
<path d="M127.136 33.4371C121.777 33.4371 118.943 35.9191 118.943 40.5283V52.1399H114.515V29.9803H118.722V33.3486L116.596 40.1736C116.596 33.4371 121.025 29.0938 127.977 29.0938H131.785V33.4371H127.136Z" fill="white"/>
<path d="M154.369 38.4008H136.656L136.745 41.0157C136.745 36.1406 140.022 33.2156 145.513 33.2156C151.004 33.2156 154.281 36.0962 154.281 41.0157L154.369 38.4008ZM132.006 41.0601C132.006 48.0181 137.675 53.0262 145.557 53.0262C151.845 53.0262 156.849 49.7909 158.487 44.6499H153.616C152.155 47.3533 149.232 48.9046 145.557 48.9046C140.819 48.9046 137.542 46.6 136.833 42.567H159.019V41.0601C159.019 34.1463 153.307 29.0938 145.469 29.0938C137.63 29.0938 132.006 34.1019 132.006 41.0601Z" fill="white"/>
<path d="M2.87827 60.5604V82.7199H7.30654V71.0639C7.30654 66.632 9.78637 63.973 13.9489 63.973C18.1115 63.973 20.5914 66.6764 20.5914 71.0639V82.7199H25.0197V71.0639C25.0197 66.5435 27.4109 63.973 31.6177 63.973C35.8246 63.973 38.3045 66.5879 38.3045 71.0639V82.7199H42.7327V70.7538C42.7327 64.0615 38.6587 59.6741 32.5033 59.6741C28.4295 59.6741 25.3295 61.5796 23.6911 64.7707C22.0969 61.5796 18.9972 59.6741 15.0117 59.6741C11.5577 59.6741 8.81216 61.0922 7.08512 63.5741V60.5604H2.87827Z" fill="white"/>
<path d="M68.461 73.7676V73.3244H56.4604C53.6705 73.3244 52.032 74.2994 52.032 75.939C52.032 78.2436 54.2462 79.4846 58.5416 79.4846C61.9514 79.4846 65.0955 78.5539 66.7781 77.313C67.9296 76.4267 68.461 75.3187 68.461 73.7676ZM47.2938 76.2937C47.2938 72.1278 50.8364 69.4243 56.2389 69.4243H68.9039L68.3725 70.1332C67.7524 65.9229 65.0955 63.7956 60.4458 63.7956C56.5046 63.7956 53.7149 65.3025 52.3864 68.0945H47.5153C48.7994 63.0423 53.8921 59.6741 60.4458 59.6741C68.0181 59.6741 72.845 64.1503 72.845 71.1969V82.7199H68.6382V78.9972L68.771 79.0858C66.7781 81.9222 62.8369 83.6064 57.7889 83.6064C51.3234 83.6064 47.2938 80.8144 47.2938 76.2937Z" fill="white"/>
<path d="M99.2373 70.7982C99.2373 75.0974 96.0488 77.535 90.6463 77.535C85.2439 77.535 82.0556 75.053 82.0556 70.7982C82.0556 66.5437 85.1997 64.0618 90.6463 64.0618C96.0931 64.0618 99.2373 66.4993 99.2373 70.7982ZM77.1845 70.7097C77.1845 77.4462 81.9228 81.8339 89.185 81.8339C93.3476 81.8339 96.8902 80.3714 99.1044 77.7565V81.3021C99.1044 85.5124 96.1375 87.9056 91.0007 87.9056C86.6167 87.9056 83.8269 86.1328 82.4098 82.7201H77.5387C78.9559 88.393 84.1367 92.0274 91.1777 92.0274C98.75 92.0274 103.533 87.817 103.533 80.9473V60.5606H99.3258V63.9288C97.1118 61.3139 93.5691 59.8514 89.4064 59.8514C82.1441 59.8514 77.4058 64.2391 77.1845 70.7097Z" fill="white"/>
<path d="M113.851 82.7199H109.423V60.5604H113.629V64.3718L111.681 70.3106C111.681 64.0171 116.109 59.6741 123.106 59.6741C130.103 59.6741 134.664 63.973 134.664 70.7538V82.7199H130.235V71.0639C130.235 66.632 127.18 63.973 122.043 63.973C116.906 63.973 113.851 66.632 113.851 71.0639V82.7199Z" fill="white"/>
<path d="M161.145 68.9811H143.432L143.52 71.596C143.52 66.7208 146.797 63.7956 152.288 63.7956C157.78 63.7956 161.056 66.6764 161.056 71.596L161.145 68.9811ZM138.782 71.6401C138.782 78.5983 144.45 83.6064 152.333 83.6064C158.621 83.6064 163.625 80.3711 165.263 75.2301H160.392C158.931 77.9336 156.008 79.4846 152.333 79.4846C147.595 79.4846 144.318 77.18 143.609 73.147H165.795V71.6401C165.795 64.7263 160.082 59.6741 152.244 59.6741C144.406 59.6741 138.782 64.6821 138.782 71.6401Z" fill="white"/>
<path d="M184.969 64.9037H167.698V60.5604H184.969V64.9037ZM182.002 82.7201C176.024 82.7201 172.127 79.219 172.127 73.8562V55.2422H176.555V73.5017C176.555 76.6484 178.592 78.3768 182.312 78.3768H184.969V82.7201H182.002Z" fill="white"/>
<path d="M212.38 76.0722C212.38 80.5482 207.774 83.6064 200.866 83.6064C193.958 83.6064 188.733 80.4597 187.581 75.5402H192.452C193.604 78.1107 196.482 79.4846 200.822 79.4846C205.162 79.4846 207.641 78.288 207.641 76.2493C207.641 74.6095 205.915 73.7676 201.973 73.6347L198.874 73.5459C192.32 73.3685 188.467 70.8868 188.467 66.8094C188.467 62.4661 192.807 59.6741 199.405 59.6741C206.003 59.6741 210.83 62.5105 211.981 67.2527H207.11C206.269 65.0366 203.479 63.7956 199.272 63.7956C195.419 63.7956 193.205 64.8593 193.205 66.7209C193.205 68.4048 195.065 69.247 199.316 69.3799L202.151 69.4685C208.704 69.6902 212.38 72.039 212.38 76.0722Z" fill="white"/>
<path d="M346.949 28.559C356.315 31.3255 356.355 45.9278 347.039 61.174C337.722 76.4202 322.577 86.5371 313.213 83.7706C309.406 82.646 307.141 79.5665 306.417 75.2827C306.259 74.3448 304.08 73.8634 303.639 74.7062C299.604 82.4235 294.556 87.5538 289.45 88.265C285.841 88.7673 282.689 86.9965 280.213 83.5203C279.735 82.8486 278.523 83.1309 278.448 83.9522C277.687 92.2504 275.368 98.2055 271.526 100.247C262.554 105.018 248.68 86.6137 240.542 59.139C232.402 31.6646 233.079 5.52403 242.052 0.752791C251.025 -4.01826 264.899 14.3866 273.038 41.8611C273.32 42.8153 273.591 43.768 273.853 44.7183C274.091 45.5833 275.459 45.5014 275.606 44.6164C278.808 25.2947 287.846 9.59275 297.071 8.30806C307.27 6.88764 313.833 23.635 311.726 45.7147C311.575 47.3134 311.382 48.8962 311.149 50.4576C311.025 51.3012 312.68 51.8834 313.124 51.1556C322.44 35.9094 337.583 25.7926 346.949 28.559Z" fill="white"/>
</svg>
